<?xml version="1.0" standalone="no"?>
<!DOCTYPE svg PUBLIC "-//W3C//DTD SVG 20010904//EN"
 "http://www.w3.org/TR/2001/REC-SVG-20010904/DTD/svg10.dtd">
<svg version="1.0" xmlns="http://www.w3.org/2000/svg"
 width="1600.000000pt" height="1600.000000pt" viewBox="0 0 1600.000000 1600.000000"
 preserveAspectRatio="xMidYMid meet">

<g transform="translate(0.000000,1600.000000) scale(0.100000,-0.100000)"
fill="#ffffff" stroke="none">
<path d="M4155 12044 c-2018 -673 -3685 -1232 -3703 -1241 -88 -46 -146 -150
-146 -258 0 -109 49 -198 139 -250 23 -14 420 -154 881 -311 461 -157 841
-288 843 -290 2 -2 -16 -25 -39 -51 -114 -129 -260 -388 -355 -627 -121 -309
-224 -789 -266 -1249 l-13 -138 -56 -30 c-176 -94 -314 -274 -372 -485 -33
-121 -30 -308 6 -429 63 -207 188 -366 372 -471 l51 -29 -22 -150 c-78 -527
-217 -977 -440 -1420 -203 -404 -407 -685 -789 -1085 -181 -190 -211 -229
-202 -264 22 -87 714 -469 1034 -570 90 -28 164 -33 240 -15 77 18 261 113
352 182 109 83 266 246 353 367 137 193 272 507 325 760 42 198 54 339 53 647
-1 520 -36 950 -117 1468 l-27 170 104 105 c88 88 112 120 151 196 64 126 82
213 76 367 -4 104 -9 134 -36 204 -53 144 -165 289 -285 372 -56 38 -55 26
-26 276 81 711 243 1169 521 1469 238 258 552 444 1253 741 127 53 244 105
260 115 36 21 669 272 1080 428 419 159 455 173 610 240 264 113 1289 488
1682 616 200 65 286 64 403 -6 148 -89 210 -292 137 -451 -47 -104 -135 -173
-270 -211 -32 -10 -197 -66 -365 -125 -651 -230 -1362 -506 -2343 -907 -207
-85 -446 -178 -530 -208 -233 -81 -857 -341 -846 -352 2 -2 534 -179 1183
-393 648 -214 1544 -510 1989 -657 478 -158 831 -269 861 -272 48 -4 354 96
3720 1218 2018 673 3686 1231 3706 1241 196 99 214 393 30 510 -30 19 -1276
439 -3721 1254 -3008 1002 -3685 1225 -3726 1224 -38 0 -905 -286 -3720 -1225z"/>
<path d="M10445 7819 c-1237 -412 -2284 -758 -2325 -768 -103 -27 -245 -35
-365 -22 -91 11 -240 58 -1640 527 -847 284 -1854 621 -2237 749 l-698 233
-20 -65 c-54 -174 -79 -355 -87 -618 l-5 -190 63 -40 c35 -22 99 -73 142 -114
215 -205 327 -455 357 -797 27 -308 -51 -552 -263 -818 l-71 -89 115 -111
c175 -170 367 -301 649 -445 1250 -638 3311 -897 5250 -660 1292 158 2365 528
2950 1017 228 190 380 406 442 627 l23 80 3 1128 c3 1076 2 1127 -15 1126 -10
-1 -1030 -338 -2268 -750z"/>
</g>
</svg>
